<?xml version="1.0" encoding="utf-8"?>
<svg version="1.1" xmlns:xlink="http://www.w3.org/1999/xlink" width="80px" height="40px" xmlns="http://www.w3.org/2000/svg">
  <defs>
    <mask fill="white" id="clip31">
      <path d="M 0 40  L 0 0  L 70 0  L 70 9.81762917933131  L 80 18.3282674772036  L 70 28.6626139817629  L 70 40  L 0 40  Z " fill-rule="evenodd" />
    </mask>
  </defs>
  <g transform="matrix(1 0 0 1 -210 -40 )">
    <path d="M 0 40  L 0 0  L 70 0  L 70 9.81762917933131  L 80 18.3282674772036  L 70 28.6626139817629  L 70 40  L 0 40  Z " fill-rule="nonzero" fill="#ffffff" stroke="none" transform="matrix(1 0 0 1 210 40 )" />
    <path d="M 0 40  L 0 0  L 70 0  L 70 9.81762917933131  L 80 18.3282674772036  L 70 28.6626139817629  L 70 40  L 0 40  Z " stroke-width="2" stroke="#797979" fill="none" transform="matrix(1 0 0 1 210 40 )" mask="url(#clip31)" />
  </g>
</svg>