<?xml version="1.0" encoding="utf-8"?>
<svg version="1.1" xmlns:xlink="http://www.w3.org/1999/xlink" width="30px" height="30px" xmlns="http://www.w3.org/2000/svg">
  <g transform="matrix(1 0 0 1 -18 -403 )">
    <path d="M 33 403  C 41.4 403  48 409.6  48 418  C 48 426.4  41.4 433  33 433  C 24.6 433  18 426.4  18 418  C 18 409.6  24.6 403  33 403  Z " fill-rule="nonzero" fill="#ffffff" stroke="none" />
    <path d="M 33 403.5  C 41.12 403.5  47.5 409.88  47.5 418  C 47.5 426.12  41.12 432.5  33 432.5  C 24.88 432.5  18.5 426.12  18.5 418  C 18.5 409.88  24.88 403.5  33 403.5  Z " stroke-width="1" stroke="#797979" fill="none" />
  </g>
</svg>