<?xml version="1.0" encoding="utf-8"?>
<svg version="1.1" xmlns:xlink="http://www.w3.org/1999/xlink" width="25px" height="25px" xmlns="http://www.w3.org/2000/svg">
  <g transform="matrix(1 0 0 1 -176 -363 )">
    <path d="M 188.5 363  C 195.5 363  201 368.5  201 375.5  C 201 382.5  195.5 388  188.5 388  C 181.5 388  176 382.5  176 375.5  C 176 368.5  181.5 363  188.5 363  Z " fill-rule="nonzero" fill="#ffffff" stroke="none" fill-opacity="0" />
    <path d="M 188.5 363.5  C 195.22 363.5  200.5 368.78  200.5 375.5  C 200.5 382.22  195.22 387.5  188.5 387.5  C 181.78 387.5  176.5 382.22  176.5 375.5  C 176.5 368.78  181.78 363.5  188.5 363.5  Z " stroke-width="1" stroke="#52df2b" fill="none" />
  </g>
</svg>