<?xml version="1.0" encoding="utf-8"?>
<svg version="1.1" xmlns:xlink="http://www.w3.org/1999/xlink" width="50px" height="44px" xmlns="http://www.w3.org/2000/svg">
  <g transform="matrix(1 0 0 1 -1456 -661 )">
    <path d="M 11.1111111111111 28.1302083333333  C 15.0655864197531 26.296875  18.7692901234568 25.2465277777778  22.2222222222222 24.9791666666667  L 22.2222222222222 19.4791666666667  C 18.7307098765432 19.7847222222222  15.0270061728395 20.9019097222222  11.1111111111111 22.8307291666667  L 11.1111111111111 28.1302083333333  Z M 11.1111111111111 16.3854166666667  C 15.258487654321 14.265625  18.9621913580247 13.1388888888889  22.2222222222222 13.0052083333333  L 22.2222222222222 7.36197916666667  C 18.9043209876543 7.51475694444444  15.2006172839506 8.71788194444444  11.1111111111111 10.9713541666667  L 11.1111111111111 16.3854166666667  Z M 37.818287037037 28.9036458333333  C 40.1331018518519 28.9036458333333  42.9591049382716 28.0251736111111  46.2962962962963 26.2682291666667  L 46.2962962962963 20.9973958333333  C 41.7631172839506 23.2126736111111  38.0594135802469 23.890625  35.1851851851852 23.03125  L 35.1851851851852 16.6145833333333  C 34.7993827160494 16.5  34.423225308642 16.3567708333333  34.056712962963 16.1848958333333  C 33.960262345679 16.1276041666667  33.641975308642 15.9652777777778  33.1018518518519 15.6979166666667  C 32.5617283950617 15.4305555555556  32.2289737654321 15.2682291666667  32.103587962963 15.2109375  C 31.9782021604938 15.1536458333333  31.6743827160494 15.0104166666667  31.1921296296296 14.78125  C 30.7098765432099 14.5520833333333  30.3771219135803 14.4040798611111  30.1938657407407 14.3372395833333  C 30.0106095679012 14.2703993055556  29.6971450617284 14.1462673611111  29.2534722222222 13.96484375  C 28.8097993827161 13.7834201388889  28.4625771604938 13.6640625  28.2118055555556 13.6067708333333  C 27.9610339506173 13.5494791666667  27.6234567901235 13.4683159722222  27.1990740740741 13.36328125  C 26.7746913580247 13.2582465277778  26.3937114197531 13.1866319444444  26.0561342592593 13.1484375  C 25.7185570987654 13.1102430555556  25.3375771604938 13.0720486111111  24.9131944444444 13.0338541666667  C 24.4888117283951 12.9956597222222  24.0644290123457 12.9765625  23.6400462962963 12.9765625  C 23.1963734567901 12.9765625  22.7237654320988 13.0052083333333  22.2222222222222 13.0625  L 22.2222222222222 19.421875  L 22.7719907407407 19.421875  C 24.7395833333333 19.421875  26.5962577160494 19.6987847222222  28.3420138888889 20.2526041666667  C 30.0877700617284 20.8064236111111  31.9926697530864 21.5894097222222  34.056712962963 22.6015625  C 34.423225308642 22.7734375  34.7993827160494 22.9166666666667  35.1851851851852 23.03125  L 35.1851851851852 28.4166666666667  C 35.9953703703704 28.7413194444444  36.8730709876543 28.9036458333333  37.818287037037 28.9036458333333  Z M 35.1851851851852 16.6145833333333  C 38.0401234567901 17.4166666666667  41.7438271604938 16.5572916666667  46.2962962962963 14.0364583333333  L 46.2962962962963 8.62239583333333  C 43.0362654320988 10.3602430555556  40.0848765432099 11.2291666666667  37.4421296296296 11.2291666666667  C 36.5740740740741 11.2291666666667  35.8217592592593 11.1527777777778  35.1851851851852 11  L 35.1851851851852 16.6145833333333  Z M 6.32233796296296 1.07421875  C 7.04571759259259 1.79036458333333  7.40740740740741 2.65451388888889  7.40740740740741 3.66666666666667  C 7.40740740740741 4.33506944444444  7.23861882716049 4.94618055555555  6.90104166666667 5.5  C 6.56346450617284 6.05381944444444  6.11496913580247 6.49305555555555  6 6.81770833333333  L 6 43.0833333333333  C 5.55555555555556 43.3506944444444  5.46875 43.5703125  5.29513888888889 43.7421875  C 5.12152777777778 43.9140625  4.89969135802469 44  4.62962962962963 44  L 2.77777777777778 44  C 2.50771604938272 44  2.28587962962963 43.9140625  2.11226851851852 43.7421875  C 1.93865740740741 43.5703125  1.85185185185185 43.3506944444444  2 43.0833333333333  L 2 6.81770833333333  C 1.29243827160494 6.49305555555555  0.843942901234568 6.05381944444444  0.506365740740741 5.5  C 0.168788580246914 4.94618055555555  0 4.33506944444444  0 3.66666666666667  C 0 2.65451388888889  0.361689814814815 1.79036458333333  1.08506944444444 1.07421875  C 1.80844907407407 0.358072916666668  2.68132716049383 0  3.7037037037037 0  C 4.72608024691358 0  5.59895833333333 0.358072916666668  6.32233796296296 1.07421875  Z M 49.1030092592593 3.92447916666667  C 49.7010030864198 4.30642361111111  50 4.83159722222222  50 5.5  L 50 27.3567708333333  C 50 28.1015625  49.6624228395062 28.6458333333333  48.9872685185185 28.9895833333333  C 48.7943672839506 29.0850694444444  48.6304012345679 29.1710069444444  48.4953703703704 29.2473958333333  C 44.2901234567901 31.4626736111111  40.7310956790123 32.5703125  37.818287037037 32.5703125  C 36.1207561728395 32.5703125  34.5968364197531 32.2361111111111  33.2465277777778 31.5677083333333  L 32.4363425925926 31.1666666666667  C 31.201774691358 30.5364583333333  30.2469135802469 30.078125  29.5717592592593 29.7916666666667  C 28.8966049382716 29.5052083333333  28.0189043209877 29.2282986111111  26.9386574074074 28.9609375  C 25.8584104938272 28.6935763888889  24.7588734567901 28.5598958333333  23.6400462962963 28.5598958333333  C 21.6724537037037 28.5598958333333  19.4010416666667 28.9800347222222  16.8258101851852 29.8203125  C 14.2505787037037 30.6605902777778  12.0466820987654 31.6345486111111  10.2141203703704 32.7421875  C 9.92476851851852 32.9140625  9.60648148148148 33  9.25925925925926 33  C 8.95061728395062 33  8.64197530864198 32.9236111111111  8.33333333333333 32.7708333333333  C 7.71604938271605 32.4079861111111  7.40740740740741 31.8732638888889  8 31.1666666666667  L 8 9.91145833333333  C 7.40740740740741 9.24305555555555  7.70640432098766 8.71788194444444  8.30439814814815 8.3359375  C 8.9795524691358 7.93489583333333  9.73668981481481 7.52907986111111  10.5758101851852 7.11848958333333  C 11.4149305555556 6.70789930555555  12.5144675925926 6.21137152777778  13.8744212962963 5.62890625  C 15.234375 5.04644097222222  16.7052469135803 4.57378472222222  18.287037037037 4.2109375  C 19.8688271604938 3.84809027777778  21.3638117283951 3.66666666666667  22.7719907407407 3.66666666666667  C 24.9324845679012 3.66666666666667  26.9483024691358 3.96267361111111  28.8194444444444 4.5546875  C 30.6905864197531 5.14670138888889  32.7064043209877 5.96788194444444  34.8668981481481 7.01822916666667  C 35.5999228395062 7.38107638888889  36.4583333333333 7.5625  37.4421296296296 7.5625  C 39.795524691358 7.5625  42.7854938271605 6.49305555555555  46.412037037037 4.35416666666667  C 46.8364197530864 4.125  47.1354166666667 3.96267361111111  47.3090277777778 3.8671875  C 47.9070216049383 3.56163194444444  48.5050154320988 3.58072916666667  49.1030092592593 3.92447916666667  Z " fill-rule="nonzero" fill="#f60808" stroke="none" transform="matrix(1 0 0 1 1456 661 )" />
  </g>
</svg>