<?xml version="1.0" encoding="utf-8"?>
<svg version="1.1" xmlns:xlink="http://www.w3.org/1999/xlink" width="40px" height="40px" xmlns="http://www.w3.org/2000/svg">
  <g transform="matrix(1 0 0 1 -90 -84 )">
    <path d="M 105.872991498207 98.3196601125011  L 110 85.6180339887499  L 114.127008501793 98.3196601125011  L 127.482288557315 98.3196601125011  L 116.677640027761 106.169696769373  L 120.804648529554 118.871322893124  L 110 111.021286236252  L 99.1953514704457 118.871322893124  L 103.322359972239 106.169696769373  L 92.5177114426846 98.3196601125011  L 105.872991498207 98.3196601125011  Z " fill-rule="nonzero" fill="#ffffff" stroke="none" />
    <path d="M 105.509720234204 97.8196601125011  L 110 84  L 114.490279765796 97.8196601125011  L 129.021130325903 97.8196601125011  L 117.265425280054 106.360679774998  L 121.755705045849 120.180339887499  L 110 111.639320225002  L 98.2442949541505 120.180339887499  L 102.734574719946 106.360679774998  L 90.9788696740969 97.8196601125011  L 105.509720234204 97.8196601125011  Z M 110 87.2360679774998  L 106.23626276221 98.8196601125011  L 94.0565532112722 98.8196601125011  L 103.910145224531 105.978713763748  L 100.146407986741 117.562305898749  L 110 110.403252247502  L 119.853592013259 117.562305898749  L 116.089854775469 105.978713763748  L 125.943446788728 98.8196601125011  L 113.76373723779 98.8196601125011  L 110 87.2360679774998  Z " fill-rule="nonzero" fill="#797979" stroke="none" />
  </g>
</svg>