<?xml version="1.0" encoding="utf-8"?>
<svg version="1.1" xmlns:xlink="http://www.w3.org/1999/xlink" width="20px" height="20px" xmlns="http://www.w3.org/2000/svg">
  <g transform="matrix(1 0 0 1 -14 -70 )">
    <path d="M 24 70  C 29.6 70  34 74.4  34 80  C 34 85.6  29.6 90  24 90  C 18.4 90  14 85.6  14 80  C 14 74.4  18.4 70  24 70  Z " fill-rule="nonzero" fill="#ffffff" stroke="none" />
    <path d="M 24 70.5  C 29.32 70.5  33.5 74.68  33.5 80  C 33.5 85.32  29.32 89.5  24 89.5  C 18.68 89.5  14.5 85.32  14.5 80  C 14.5 74.68  18.68 70.5  24 70.5  Z " stroke-width="1" stroke="#797979" fill="none" />
  </g>
</svg>