<?xml version="1.0" encoding="utf-8"?>
<svg version="1.1" xmlns:xlink="http://www.w3.org/1999/xlink" width="50px" height="50px" xmlns="http://www.w3.org/2000/svg">
  <g transform="matrix(1 0 0 1 -30 -30 )">
    <path d="M 55 30  C 69 30  80 41  80 55  C 80 69  69 80  55 80  C 41 80  30 69  30 55  C 30 41  41 30  55 30  Z " fill-rule="nonzero" fill="#ffffff" stroke="none" />
    <path d="M 55 30.5  C 68.72 30.5  79.5 41.28  79.5 55  C 79.5 68.72  68.72 79.5  55 79.5  C 41.28 79.5  30.5 68.72  30.5 55  C 30.5 41.28  41.28 30.5  55 30.5  Z " stroke-width="1" stroke="#797979" fill="none" />
  </g>
</svg>