<?xml version="1.0" encoding="utf-8"?>
<svg version="1.1" xmlns:xlink="http://www.w3.org/1999/xlink" width="46px" height="50px" xmlns="http://www.w3.org/2000/svg">
  <g transform="matrix(1 0 0 1 -162 -250 )">
    <path d="M 7.09765625 41.7367788461538  C 7.47699652777778 41.3561698717949  7.66666666666667 40.9054487179487  7.66666666666667 40.3846153846154  C 7.66666666666667 39.8637820512821  7.47699652777778 39.4130608974359  7.09765625 39.0324519230769  C 6.71831597222222 38.6518429487179  6.26909722222222 38.4615384615385  5.75 38.4615384615385  C 5.23090277777778 38.4615384615385  4.78168402777778 38.6518429487179  4.40234375 39.0324519230769  C 4.02300347222222 39.4130608974359  3.83333333333333 39.8637820512821  3.83333333333333 40.3846153846154  C 3.83333333333333 40.9054487179487  4.02300347222222 41.3561698717949  4.40234375 41.7367788461538  C 4.78168402777778 42.1173878205128  5.23090277777778 42.3076923076923  5.75 42.3076923076923  C 6.26909722222222 42.3076923076923  6.71831597222222 42.1173878205128  7.09765625 41.7367788461538  Z M 41.5227864583333 25.5108173076923  C 41.9520399305556 24.5893429487179  42.1666666666667 23.7780448717949  42.1666666666667 23.0769230769231  C 42.1666666666667 22.0552884615385  41.77734375 21.1588541666667  40.9986979166667 20.3876201923077  C 40.2200520833333 19.6163862179487  39.3315972222222 19.2307692307692  38.3333333333333 20  L 27.7916666666667 20  C 27.7916666666667 18.0689102564103  28.2708333333333 16.4713541666667  29.2291666666667 14.4381009615385  C 30.1875 12.4048477564103  30.6666666666667 10.7972756410256  30.6666666666667 9.61538461538461  C 30.6666666666667 7.65224358974358  30.3472222222222 6.19991987179487  29.7083333333333 5.25841346153846  C 29.0694444444444 4.31690705128205  27.7916666666667 3.84615384615384  25.875 3.84615384615384  C 25.3559027777778 4.36698717948718  24.9765625 5.21834935897436  24.7369791666667 6.40024038461539  C 24.4973958333333 7.58213141025641  24.1929253472222 8.83914262820512  23.8235677083333 10.1712740384615  C 23.4542100694444 11.5034054487179  22.8602430555556 12.6001602564103  22.0416666666667 13.4615384615385  C 21.6024305555556 13.9222756410256  20.8337673611111 14.833733974359  19.7356770833333 16.1959134615385  C 19.6558159722222 16.2960737179487  19.4262152777778 16.5965544871795  19.046875 17.0973557692308  C 18.6675347222222 17.598157051282  18.3530815972222 18.0088141025641  18.103515625 18.3293269230769  C 17.8539496527778 18.6498397435897  17.5095486111111 19.0755208333333  17.0703125 19.6063701923077  C 16.6310763888889 20.137219551282  16.2317708333333 20.5779246794872  15.8723958333333 20.9284855769231  C 15.5130208333333 21.279046474359  15.1286892361111 21.6346153846154  14.7194010416667 21.9951923076923  C 14.3101128472222 22.3557692307692  13.9108072916667 22.6262019230769  13.521484375 22.8064903846154  C 13.1321614583333 22.9867788461538  12.7777777777778 23.0769230769231  12.4583333333333 23.0769230769231  L 12 23.0769230769231  L 12 42.3076923076923  L 12.4583333333333 42.3076923076923  C 12.7178819444444 42.3076923076923  13.0323350694444 42.3377403846154  13.4016927083333 42.3978365384615  C 13.7710503472222 42.4579326923077  14.1004774305556 42.5230368589744  14.3899739583333 42.5931490384615  C 14.6794704861111 42.6632612179487  15.0588107638889 42.7734375  15.5279947916667 42.9236778846154  C 15.9971788194444 43.0739182692308  16.3465711805556 43.1891025641026  16.576171875 43.2692307692308  C 16.8057725694444 43.349358974359  17.16015625 43.4745592948718  17.6393229166667 43.6448317307692  C 18.1184895833333 43.8151041666667  18.4079861111111 43.9202724358974  18.5078125 43.9603365384615  C 22.7204861111111 45.4226762820513  26.1345486111111 46.1538461538462  28.75 46.1538461538462  L 32.3736979166667 46.1538461538462  C 36.20703125 46.1538461538462  38.1236979166667 44.4811698717949  38.1236979166667 41.1358173076923  C 38.1236979166667 40.614983974359  38.0737847222222 40.0540865384615  37.9739583333333 39.453125  C 38.5729166666667 39.1326121794872  39.0470920138889 38.6067708333333  39.396484375 37.8756009615385  C 39.7458767361111 37.1444310897436  39.9205729166667 36.4082532051282  39.9205729166667 35.6670673076923  C 39.9205729166667 34.9258814102564  39.7408854166667 34.2347756410256  39.3815104166667 33.59375  C 40.4396701388889 32.5921474358974  40.96875 31.4002403846154  40.96875 30.0180288461538  C 40.96875 29.5172275641026  40.8689236111111 28.9613381410256  40.6692708333333 28.3503605769231  C 40.4696180555556 27.7393830128205  40.2200520833333 27.2636217948718  39.9205729166667 26.9230769230769  C 40.5594618055556 26.9030448717949  41.0935329861111 26.4322916666667  41.5227864583333 25.5108173076923  Z M 43.7239583333333 17.6682692307692  C 45.2413194444444 19.1907051282051  46 20.9835737179487  46 23.046875  C 46 24.8297275641026  45.5108506944444 26.4623397435897  44.5325520833333 27.9447115384615  C 44.7122395833333 28.6057692307692  44.8020833333333 29.296875  44.8020833333333 30.0180288461538  C 44.8020833333333 31.5604967948718  44.4227430555556 33.0028044871795  43.6640625 34.3449519230769  C 43.7239583333333 34.765625  43.75390625 35.1963141025641  43.75390625 35.6370192307692  C 43.75390625 37.6602564102564  43.1549479166667 39.443108974359  41.95703125 40.9855769230769  C 41.9769965277778 43.7700320512821  41.1284722222222 45.9685496794872  39.4114583333333 47.5811298076923  C 37.6944444444444 49.1937099358974  35.4283854166667 50  32.61328125 50  L 31.53515625 50  L 28.75 50  C 26.8333333333333 50  24.9416232638889 49.7746394230769  23.0748697916667 49.3239182692308  C 21.2081163194444 48.8731971153846  19.046875 48.2171474358974  16.5911458333333 47.3557692307692  C 14.2751736111111 46.5544871794872  12.8975694444444 46.1538461538462  12.4583333333333 46.1538461538462  L 3.83333333333333 46.1538461538462  C 2.77517361111111 46.1538461538462  1.87174479166667 45.7782451923077  1.123046875 45.0270432692308  C 0.374348958333333 44.2758413461538  0 43.369391025641  0 42.3076923076923  L 0 23.0769230769231  C 0 22.0152243589744  0.374348958333333 21.1087740384615  1.123046875 20.3575721153846  C 1.87174479166667 19.6063701923077  2.77517361111111 19.2307692307692  3.83333333333333 19.2307692307692  L 12.0390625 19.2307692307692  C 12.7578125 18.75  14.1254340277778 17.197516025641  16.1419270833333 14.5733173076923  C 17.2999131944444 13.0709134615385  18.3680555555556 11.7888621794872  19.3463541666667 10.7271634615385  C 19.8255208333333 10.2263621794872  20.1799045138889 9.36999198717948  20.4095052083333 8.15805288461539  C 20.6391059027778 6.94611378205128  20.9435763888889 5.67908653846154  21.3229166666667 4.35697115384616  C 21.7022569444444 3.03485576923077  22.3211805555556 1.953125  23.1796875 1.11177884615384  C 23.9583333333333 0.370592948717952  24.8567708333333 0  25.875 0  C 27.5520833333333 0  29.0594618055556 0.325520833333337  30.3971354166667 0.9765625  C 31.7348090277778 1.62760416666666  32.7530381944444 2.64423076923077  33.4518229166667 4.02644230769231  C 34.1506076388889 5.40865384615384  34.5 7.27163461538461  34.5 9.61538461538461  C 34.5 11.4783653846154  34.0208333333333 13.4014423076923  33.0625 15.3846153846154  L 38.3333333333333 15.3846153846154  C 40.4097222222222 15.3846153846154  42.2065972222222 16.1458333333333  43.7239583333333 17.6682692307692  Z " fill-rule="nonzero" fill="#000000" stroke="none" transform="matrix(1 0 0 1 162 250 )" />
  </g>
</svg>