<?xml version="1.0" encoding="utf-8"?>
<svg version="1.1" xmlns:xlink="http://www.w3.org/1999/xlink" width="30px" height="30px" xmlns="http://www.w3.org/2000/svg">
  <g transform="matrix(1 0 0 1 -78 -360 )">
    <path d="M 93 360  C 101.4 360  108 366.6  108 375  C 108 383.4  101.4 390  93 390  C 84.6 390  78 383.4  78 375  C 78 366.6  84.6 360  93 360  Z " fill-rule="nonzero" fill="#ffffff" stroke="none" />
    <path d="M 93 360.5  C 101.12 360.5  107.5 366.88  107.5 375  C 107.5 383.12  101.12 389.5  93 389.5  C 84.88 389.5  78.5 383.12  78.5 375  C 78.5 366.88  84.88 360.5  93 360.5  Z " stroke-width="1" stroke="#797979" fill="none" />
  </g>
</svg>