<?xml version="1.0" encoding="utf-8"?>
<svg version="1.1" xmlns:xlink="http://www.w3.org/1999/xlink" width="270px" height="270px" xmlns="http://www.w3.org/2000/svg">
  <g transform="matrix(1 0 0 1 -55 -70 )">
    <path d="M 55 70  L 325 70  L 325 340  L 55 340  L 55 70  " fill-rule="nonzero" fill="#cccccc" stroke="none" />
    <path d="M 74 89  L 306 89  L 306 321  L 74 321  L 74 89  " fill-rule="nonzero" fill="#ffffff" stroke="none" />
    <path d="M 215.65 151  C 204.31 151  195.4 142.09  195.4 130.75  C 195.4 119.41  204.31 110.5  215.65 110.5  C 226.99 110.5  235.9 119.41  235.9 130.75  C 235.9 142.09  226.99 151  215.65 151  " fill-rule="nonzero" fill="#cccccc" stroke="none" />
    <path d="M 81 314  L 81 194.1  L 135.5 139.6  L 211.8 183.2  L 255.4 172.3  L 299 183.2  L 299 314  L 81 314  " fill-rule="nonzero" fill="#169bd5" stroke="none" />
  </g>
</svg>