<?xml version="1.0" encoding="utf-8"?>
<svg version="1.1" xmlns:xlink="http://www.w3.org/1999/xlink" width="100px" height="100px" xmlns="http://www.w3.org/2000/svg">
  <g transform="matrix(1 0 0 1 -40 -474 )">
    <path d="M 90 474  C 118 474  140 496  140 524  C 140 552  118 574  90 574  C 62 574  40 552  40 524  C 40 496  62 474  90 474  Z " fill-rule="nonzero" fill="#ffffff" stroke="none" />
    <path d="M 90 474.5  C 117.72 474.5  139.5 496.28  139.5 524  C 139.5 551.72  117.72 573.5  90 573.5  C 62.28 573.5  40.5 551.72  40.5 524  C 40.5 496.28  62.28 474.5  90 474.5  Z " stroke-width="1" stroke="#797979" fill="none" />
  </g>
</svg>