<?xml version="1.0" encoding="utf-8"?>
<svg version="1.1" xmlns:xlink="http://www.w3.org/1999/xlink" width="80px" height="80px" xmlns="http://www.w3.org/2000/svg">
  <g transform="matrix(1 0 0 1 -250 -40 )">
    <path d="M 290 40  C 312.4 40  330 57.6  330 80  C 330 102.4  312.4 120  290 120  C 267.6 120  250 102.4  250 80  C 250 57.6  267.6 40  290 40  Z " fill-rule="nonzero" fill="#ffffff" stroke="none" />
    <path d="M 290 40.5  C 312.12 40.5  329.5 57.88  329.5 80  C 329.5 102.12  312.12 119.5  290 119.5  C 267.88 119.5  250.5 102.12  250.5 80  C 250.5 57.88  267.88 40.5  290 40.5  Z " stroke-width="1" stroke="#797979" fill="none" />
  </g>
</svg>