<?xml version="1.0" encoding="utf-8"?>
<svg version="1.1" xmlns:xlink="http://www.w3.org/1999/xlink" width="50px" height="50px" xmlns="http://www.w3.org/2000/svg">
  <g transform="matrix(1 0 0 1 -57 -200 )">
    <path d="M 82 200  C 96 200  107 211  107 225  C 107 239  96 250  82 250  C 68 250  57 239  57 225  C 57 211  68 200  82 200  Z " fill-rule="nonzero" fill="#ffffff" stroke="none" />
    <path d="M 82 200.5  C 95.72 200.5  106.5 211.28  106.5 225  C 106.5 238.72  95.72 249.5  82 249.5  C 68.28 249.5  57.5 238.72  57.5 225  C 57.5 211.28  68.28 200.5  82 200.5  Z " stroke-width="1" stroke="#797979" fill="none" />
  </g>
</svg>